<svg width="16" height="16" viewBox="0 0 16 16" fill="none" xmlns="http://www.w3.org/2000/svg">
<path d="M8 6.33334C7.76389 6.33334 7.56611 6.41334 7.40667 6.57334C7.24722 6.73334 7.16722 6.93112 7.16667 7.16667V9.83334L6.41667 9.08334C6.26389 8.93056 6.06944 8.85417 5.83333 8.85417C5.59722 8.85417 5.40278 8.93056 5.25 9.08334C5.09722 9.23612 5.02083 9.43056 5.02083 9.66667C5.02083 9.90278 5.09722 10.0972 5.25 10.25L7.41667 12.4167C7.58333 12.5833 7.77778 12.6667 8 12.6667C8.22222 12.6667 8.41667 12.5833 8.58333 12.4167L10.75 10.25C10.9028 10.0972 10.9792 9.90278 10.9792 9.66667C10.9792 9.43056 10.9028 9.23612 10.75 9.08334C10.5972 8.93056 10.4028 8.85417 10.1667 8.85417C9.93056 8.85417 9.73611 8.93056 9.58333 9.08334L8.83333 9.83334V7.16667C8.83333 6.93056 8.75333 6.73278 8.59333 6.57334C8.43333 6.41389 8.23556 6.33389 8 6.33334ZM2.16667 4.66667V13.8333H13.8333V4.66667H2.16667ZM2.16667 15.5C1.70833 15.5 1.31611 15.337 0.99 15.0108C0.663889 14.6847 0.500556 14.2922 0.5 13.8333V3.4375C0.5 3.24306 0.531389 3.05556 0.594167 2.875C0.656944 2.69445 0.750556 2.52778 0.875 2.375L1.91667 1.10417C2.06944 0.909727 2.26028 0.760282 2.48917 0.655838C2.71806 0.551393 2.95778 0.499449 3.20833 0.500004H12.7917C13.0417 0.500004 13.2814 0.552227 13.5108 0.656671C13.7403 0.761116 13.9311 0.910282 14.0833 1.10417L15.125 2.375C15.25 2.52778 15.3439 2.69445 15.4067 2.875C15.4694 3.05556 15.5006 3.24306 15.5 3.4375V13.8333C15.5 14.2917 15.3369 14.6842 15.0108 15.0108C14.6847 15.3375 14.2922 15.5006 13.8333 15.5H2.16667ZM2.5 3H13.5L12.7917 2.16667H3.20833L2.5 3Z" fill="#1C3055"/>
</svg>
