<svg width="24" height="24" viewBox="0 0 24 24" fill="none" xmlns="http://www.w3.org/2000/svg">
<path fill-rule="evenodd" clip-rule="evenodd" d="M7.24956 5.4611V6.8811L5.55556 7.0191C4.97359 7.06594 4.42413 7.30655 3.99503 7.70248C3.56593 8.0984 3.28197 8.62677 3.18856 9.2031C3.14722 9.4611 3.10922 9.71943 3.07456 9.9781C3.06678 10.0407 3.07892 10.1041 3.10926 10.1594C3.1396 10.2147 3.18659 10.259 3.24356 10.2861L3.32056 10.3221C8.74956 12.8921 15.2506 12.8921 20.6786 10.3221L20.7556 10.2861C20.8123 10.2589 20.8591 10.2145 20.8893 10.1592C20.9194 10.1039 20.9314 10.0406 20.9236 9.9781C20.8896 9.71923 20.852 9.46087 20.8106 9.2031C20.7171 8.62677 20.4332 8.0984 20.0041 7.70248C19.575 7.30655 19.0255 7.06594 18.4436 7.0191L16.7496 6.8821V5.4621C16.7497 5.04295 16.5993 4.63769 16.3259 4.32002C16.0524 4.00235 15.6741 3.79337 15.2596 3.7311L14.0396 3.5481C12.6871 3.34595 11.312 3.34595 9.95956 3.5481L8.73956 3.7311C8.32523 3.79335 7.94699 4.00218 7.67357 4.31964C7.40015 4.6371 7.2497 5.04212 7.24956 5.4611ZM13.8166 5.0311C12.6119 4.85117 11.3872 4.85117 10.1826 5.0311L8.96256 5.2141C8.90337 5.22296 8.84932 5.25276 8.81023 5.29808C8.77115 5.34341 8.74962 5.40125 8.74956 5.4611V6.7761C10.9145 6.65246 13.0847 6.65246 15.2496 6.7761V5.4611C15.2495 5.40125 15.228 5.34341 15.1889 5.29808C15.1498 5.25276 15.0957 5.22296 15.0366 5.2141L13.8166 5.0311Z" fill="#D4B036"/>
<path d="M21.1184 12.0696C21.1164 12.0373 21.1066 12.0059 21.0899 11.9782C21.0731 11.9505 21.0498 11.9273 21.0221 11.9106C20.9943 11.8938 20.9629 11.8841 20.9306 11.8822C20.8983 11.8803 20.8659 11.8862 20.8364 11.8996C15.2654 14.3666 8.73543 14.3666 3.16443 11.8996C3.13491 11.8862 3.1026 11.8803 3.07026 11.8822C3.03793 11.8841 3.00654 11.8938 2.9788 11.9106C2.95106 11.9273 2.92779 11.9505 2.91101 11.9782C2.89422 12.0059 2.88441 12.0373 2.88243 12.0696C2.78115 13.9841 2.88406 15.9039 3.18943 17.7966C3.28264 18.3731 3.56651 18.9017 3.99563 19.2978C4.42475 19.6939 4.97432 19.9347 5.55643 19.9816L7.42843 20.1316C10.4714 20.3776 13.5284 20.3776 16.5724 20.1316L18.4444 19.9816C19.0265 19.9347 19.5761 19.6939 20.0052 19.2978C20.4344 18.9017 20.7182 18.3731 20.8114 17.7966C21.1174 15.9016 21.2214 13.9816 21.1184 12.0706" fill="#D4B036"/>
</svg>
