<svg width="19" height="20" viewBox="0 0 19 20" fill="none" xmlns="http://www.w3.org/2000/svg">
<path d="M18.667 18V4C18.667 2.897 17.77 2 16.667 2H14.667V0H12.667V2H6.66699V0H4.66699V2H2.66699C1.56399 2 0.666992 2.897 0.666992 4V18C0.666992 19.103 1.56399 20 2.66699 20H16.667C17.77 20 18.667 19.103 18.667 18ZM6.66699 16H4.66699V14H6.66699V16ZM6.66699 12H4.66699V10H6.66699V12ZM10.667 16H8.66699V14H10.667V16ZM10.667 12H8.66699V10H10.667V12ZM14.667 16H12.667V14H14.667V16ZM14.667 12H12.667V10H14.667V12ZM16.667 7H2.66699V5H16.667V7Z" fill="#6B7280"/>
</svg>
