<svg width="24" height="24" viewBox="0 0 24 24" fill="none" xmlns="http://www.w3.org/2000/svg">
<path d="M4 20C3.45 20 2.97933 19.8043 2.588 19.413C2.19667 19.0217 2.00067 18.5507 2 18V6C2 5.45 2.196 4.97933 2.588 4.588C2.98 4.19667 3.45067 4.00067 4 4H9.175C9.44167 4 9.696 4.05 9.938 4.15C10.18 4.25 10.3923 4.39167 10.575 4.575L12 6H21C21.2833 6 21.521 6.096 21.713 6.288C21.905 6.48 22.0007 6.71733 22 7C21.9993 7.28267 21.9033 7.52033 21.712 7.713C21.5207 7.90567 21.2833 8.00133 21 8H7.85C6.81667 8 5.91667 8.325 5.15 8.975C4.38333 9.625 4 10.45 4 11.45V18L5.975 11.425C6.10833 10.9917 6.35433 10.646 6.713 10.388C7.07167 10.13 7.46733 10.0007 7.9 10H20.8C21.4833 10 22.021 10.271 22.413 10.813C22.805 11.355 22.909 11.9423 22.725 12.575L20.925 18.575C20.7917 19.0083 20.546 19.3543 20.188 19.613C19.83 19.8717 19.434 20.0007 19 20H4Z" fill="#6B7280"/>
</svg>
