<svg width="16" height="16" viewBox="0 0 16 16" fill="none" xmlns="http://www.w3.org/2000/svg">
<g clip-path="url(#clip0_1_2353)">
<path d="M2.66623 6.04845H6.04845V2.66623H10.6662V6.39068H11.5551V2.66623C11.5551 2.43048 11.4615 2.20439 11.2948 2.03769C11.1281 1.87099 10.902 1.77734 10.6662 1.77734H4.83068L1.77734 4.83068V13.3329C1.77734 13.5686 1.87099 13.7947 2.03769 13.9614C2.20439 14.1281 2.43048 14.2218 2.66623 14.2218H10.6662C10.902 14.2218 11.1281 14.1281 11.2948 13.9614C11.4615 13.7947 11.5551 13.5686 11.5551 13.3329H2.66623V6.04845ZM2.66623 5.19512L5.19512 2.66623H5.3329V5.3329H2.66623V5.19512Z" fill="#666666"/>
<path d="M12.5868 7.26703C12.5018 7.19421 12.3924 7.15617 12.2805 7.16049C12.1687 7.16481 12.0626 7.21118 11.9834 7.29033C11.9043 7.36948 11.8579 7.47559 11.8536 7.58745C11.8492 7.6993 11.8873 7.80867 11.9601 7.89369L13.4046 9.33369H8.00011C7.88223 9.33369 7.76919 9.38052 7.68584 9.46387C7.60249 9.54722 7.55566 9.66026 7.55566 9.77814C7.55566 9.89601 7.60249 10.0091 7.68584 10.0924C7.76919 10.1758 7.88223 10.2226 8.00011 10.2226H13.4179L11.9601 11.6804C11.9136 11.7202 11.8758 11.7692 11.8491 11.8244C11.8224 11.8795 11.8075 11.9396 11.8051 12.0008C11.8027 12.062 11.813 12.123 11.8354 12.1801C11.8577 12.2371 11.8916 12.2889 11.9349 12.3322C11.9782 12.3755 12.03 12.4094 12.0871 12.4318C12.1441 12.4541 12.2051 12.4644 12.2664 12.462C12.3276 12.4597 12.3876 12.4447 12.4428 12.418C12.4979 12.3913 12.5469 12.3536 12.5868 12.307L15.1112 9.77814L12.5868 7.26703Z" fill="#666666"/>
</g>
<defs>
<clipPath id="clip0_1_2353">
<rect width="16" height="16" fill="white"/>
</clipPath>
</defs>
</svg>
