<svg width="19" height="17" viewBox="0 0 19 17" fill="none" xmlns="http://www.w3.org/2000/svg">
<path d="M14.308 8.692C15.4213 8.692 16.3663 9.08033 17.143 9.857C17.9197 10.6337 18.308 11.5787 18.308 12.692C18.308 13.8067 17.9197 14.752 17.143 15.528C16.367 16.304 15.422 16.692 14.308 16.692C13.194 16.692 12.2487 16.304 11.472 15.528C10.6953 14.752 10.3073 13.8067 10.308 12.692C10.308 11.5787 10.696 10.6337 11.472 9.857C12.248 9.08033 13.1933 8.692 14.308 8.692ZM7.942 13C7.95534 13.1707 7.96767 13.3393 7.979 13.506C7.99034 13.6727 8.02034 13.8373 8.069 14H1.615C1.155 14 0.770669 13.846 0.462002 13.538C0.153335 13.23 -0.000664511 12.8453 2.15517e-06 12.384V1.616C2.15517e-06 1.15533 0.154336 0.771 0.463002 0.463C0.771669 0.155 1.15567 0.000666667 1.615 0H6.596L8.596 2H16.385C16.845 2 17.2293 2.15433 17.538 2.463C17.8467 2.77167 18.0007 3.156 18 3.616V7.486C17.4553 7.09533 16.87 6.80133 16.244 6.604C15.6187 6.40667 14.9733 6.308 14.308 6.308C12.464 6.308 10.9197 6.96567 9.675 8.281C8.43034 9.59633 7.85267 11.1693 7.942 13ZM13.602 14.712L16.942 11.377L16.316 10.75L13.602 13.452L12.3 12.15L11.673 12.783L13.602 14.712Z" fill="#D4B036"/>
</svg>
