<svg width="21" height="16" viewBox="0 0 21 16" fill="none" xmlns="http://www.w3.org/2000/svg">
<path d="M2 16C1.45 16 0.979333 15.8043 0.588 15.413C0.196667 15.0217 0.000666667 14.5507 0 14V2C0 1.45 0.196 0.979333 0.588 0.588C0.98 0.196666 1.45067 0.000666667 2 0H7.175C7.44167 0 7.696 0.0500001 7.938 0.15C8.18 0.25 8.39233 0.391666 8.575 0.575L10 2H19C19.2833 2 19.521 2.096 19.713 2.288C19.905 2.48 20.0007 2.71733 20 3C19.9993 3.28267 19.9033 3.52033 19.712 3.713C19.5207 3.90567 19.2833 4.00133 19 4H5.85C4.81667 4 3.91667 4.325 3.15 4.975C2.38333 5.625 2 6.45 2 7.45V14L3.975 7.425C4.10833 6.99167 4.35433 6.646 4.713 6.388C5.07167 6.13 5.46733 6.00067 5.9 6H18.8C19.4833 6 20.021 6.271 20.413 6.813C20.805 7.355 20.909 7.94233 20.725 8.575L18.925 14.575C18.7917 15.0083 18.546 15.3543 18.188 15.613C17.83 15.8717 17.434 16.0007 17 16H2Z" fill="#D4B036"/>
</svg>
