<svg width="18" height="18" viewBox="0 0 18 18" fill="none" xmlns="http://www.w3.org/2000/svg">
<path d="M9.0013 13.5837C10.943 13.5837 12.5846 12.367 13.2596 10.667H4.74297C5.40964 12.367 7.05964 13.5837 9.0013 13.5837ZM6.08464 8.16699C6.41616 8.16699 6.7341 8.0353 6.96852 7.80088C7.20294 7.56646 7.33464 7.24851 7.33464 6.91699C7.33464 6.58547 7.20294 6.26753 6.96852 6.03311C6.7341 5.79869 6.41616 5.66699 6.08464 5.66699C5.75311 5.66699 5.43517 5.79869 5.20075 6.03311C4.96633 6.26753 4.83464 6.58547 4.83464 6.91699C4.83464 7.24851 4.96633 7.56646 5.20075 7.80088C5.43517 8.0353 5.75311 8.16699 6.08464 8.16699ZM11.918 8.16699C12.2495 8.16699 12.5674 8.0353 12.8019 7.80088C13.0363 7.56646 13.168 7.24851 13.168 6.91699C13.168 6.58547 13.0363 6.26753 12.8019 6.03311C12.5674 5.79869 12.2495 5.66699 11.918 5.66699C11.5864 5.66699 11.2685 5.79869 11.0341 6.03311C10.7997 6.26753 10.668 6.58547 10.668 6.91699C10.668 7.24851 10.7997 7.56646 11.0341 7.80088C11.2685 8.0353 11.5864 8.16699 11.918 8.16699ZM9.0013 15.667C7.23319 15.667 5.5375 14.9646 4.28726 13.7144C3.03701 12.4641 2.33464 10.7684 2.33464 9.00033C2.33464 7.23222 3.03701 5.53652 4.28726 4.28628C5.5375 3.03604 7.23319 2.33366 9.0013 2.33366C10.7694 2.33366 12.4651 3.03604 13.7153 4.28628C14.9656 5.53652 15.668 7.23222 15.668 9.00033C15.668 10.7684 14.9656 12.4641 13.7153 13.7144C12.4651 14.9646 10.7694 15.667 9.0013 15.667ZM9.0013 0.666992C4.39297 0.666992 0.667969 4.41699 0.667969 9.00033C0.667969 11.2105 1.54594 13.3301 3.10875 14.8929C3.88257 15.6667 4.80123 16.2805 5.81227 16.6993C6.82332 17.1181 7.90695 17.3337 9.0013 17.3337C11.2114 17.3337 13.3311 16.4557 14.8939 14.8929C16.4567 13.3301 17.3346 11.2105 17.3346 9.00033C17.3346 7.90598 17.1191 6.82234 16.7003 5.8113C16.2815 4.80025 15.6677 3.88159 14.8939 3.10777C14.12 2.33395 13.2014 1.72012 12.1903 1.30133C11.1793 0.88254 10.0957 0.666992 9.0013 0.666992Z" fill="black" fill-opacity="0.5"/>
</svg>
