<svg width="15" height="20" viewBox="0 0 15 20" fill="none" xmlns="http://www.w3.org/2000/svg">
<path d="M2.5 0C1.12109 0 0 1.12109 0 2.5V17.5C0 18.8789 1.12109 20 2.5 20H12.5C13.8789 20 15 18.8789 15 17.5V6.25H10C9.30859 6.25 8.75 5.69141 8.75 5V0H2.5ZM10 0V5H15L10 0ZM3.125 2.5H5.625C5.96875 2.5 6.25 2.78125 6.25 3.125C6.25 3.46875 5.96875 3.75 5.625 3.75H3.125C2.78125 3.75 2.5 3.46875 2.5 3.125C2.5 2.78125 2.78125 2.5 3.125 2.5ZM3.125 5H5.625C5.96875 5 6.25 5.28125 6.25 5.625C6.25 5.96875 5.96875 6.25 5.625 6.25H3.125C2.78125 6.25 2.5 5.96875 2.5 5.625C2.5 5.28125 2.78125 5 3.125 5ZM5.24219 14.9141C5.00391 15.707 4.27344 16.25 3.44531 16.25H3.125C2.78125 16.25 2.5 15.9688 2.5 15.625C2.5 15.2812 2.78125 15 3.125 15H3.44531C3.72266 15 3.96484 14.8203 4.04297 14.5547L4.625 12.6211C4.75781 12.1797 5.16406 11.875 5.625 11.875C6.08594 11.875 6.49219 12.1758 6.625 12.6211L7.07812 14.1289C7.36719 13.8867 7.73438 13.75 8.125 13.75C8.74609 13.75 9.3125 14.1016 9.58984 14.6562L9.76172 15H11.875C12.2188 15 12.5 15.2812 12.5 15.625C12.5 15.9688 12.2188 16.25 11.875 16.25H9.375C9.13672 16.25 8.92188 16.1172 8.81641 15.9062L8.47266 15.2148C8.40625 15.082 8.27344 15 8.12891 15C7.98438 15 7.84766 15.082 7.78516 15.2148L7.44141 15.9062C7.32812 16.1367 7.08203 16.2734 6.82812 16.25C6.57422 16.2266 6.35547 16.0508 6.28516 15.8086L5.625 13.6328L5.24219 14.9141Z" fill="#F44336"/>
</svg>
