<svg width="20" height="18" viewBox="0 0 20 18" fill="none" xmlns="http://www.w3.org/2000/svg">
<path d="M2.22222 0C0.996528 0 0 0.996528 0 2.22222V15.5556C0 16.7812 0.996528 17.7778 2.22222 17.7778H11.1111C12.3368 17.7778 13.3333 16.7812 13.3333 15.5556V14.8854C13.2396 14.9236 13.1458 14.9549 13.0486 14.9792L10.9618 15.5C10.8576 15.5243 10.7535 15.5417 10.6493 15.5486C10.6181 15.5521 10.5868 15.5556 10.5556 15.5556H8.33333C8.12153 15.5556 7.93056 15.4375 7.83681 15.25L7.53125 14.6354C7.47222 14.5174 7.35417 14.4444 7.2257 14.4444C7.09722 14.4444 6.97569 14.5174 6.92014 14.6354L6.61458 15.25C6.51389 15.4549 6.29514 15.5764 6.06944 15.5556C5.84375 15.5347 5.64931 15.3785 5.58681 15.1632L5 13.2292L4.65972 14.3681C4.44792 15.0729 3.79861 15.5556 3.0625 15.5556H2.77778C2.47222 15.5556 2.22222 15.3056 2.22222 15C2.22222 14.6944 2.47222 14.4444 2.77778 14.4444H3.0625C3.30903 14.4444 3.52431 14.2847 3.59375 14.0486L4.11111 12.3299C4.22917 11.9375 4.59028 11.6667 5 11.6667C5.40972 11.6667 5.77083 11.9375 5.88889 12.3299L6.29167 13.6701C6.54861 13.4549 6.875 13.3333 7.22222 13.3333C7.77431 13.3333 8.27778 13.6458 8.52431 14.1389L8.67708 14.4444H8.98611C8.87847 14.1389 8.85764 13.8056 8.9375 13.4792L9.45833 11.3924C9.55556 11 9.75695 10.6458 10.0417 10.3611L13.3333 7.06945V5.55556H8.88889C8.27431 5.55556 7.77778 5.05903 7.77778 4.44444V0H2.22222ZM8.88889 0V4.44444H13.3333L8.88889 0ZM19.0903 4.85069C18.5486 4.30903 17.6701 4.30903 17.125 4.85069L16.1042 5.87153L18.5694 8.33681L19.5903 7.31597C20.1319 6.77431 20.1319 5.89583 19.5903 5.3507L19.0903 4.85069ZM10.8299 11.1458C10.6875 11.2882 10.5868 11.4653 10.5382 11.6632L10.0174 13.75C9.96875 13.941 10.0243 14.1389 10.1632 14.2778C10.3021 14.4167 10.5 14.4722 10.691 14.4236L12.7778 13.9028C12.9722 13.8542 13.1528 13.7535 13.2951 13.6111L17.7812 9.12153L15.316 6.65625L10.8299 11.1458Z" fill="#F44336"/>
</svg>
