<svg width="16" height="21" viewBox="0 0 16 21" fill="none" xmlns="http://www.w3.org/2000/svg">
<path d="M2.83301 0.5C1.4541 0.5 0.333008 1.62109 0.333008 3V18C0.333008 19.3789 1.4541 20.5 2.83301 20.5H12.833C14.2119 20.5 15.333 19.3789 15.333 18V6.75H10.333C9.6416 6.75 9.08301 6.19141 9.08301 5.5V0.5H2.83301ZM10.333 0.5V5.5H15.333L10.333 0.5ZM3.45801 3H5.95801C6.30176 3 6.58301 3.28125 6.58301 3.625C6.58301 3.96875 6.30176 4.25 5.95801 4.25H3.45801C3.11426 4.25 2.83301 3.96875 2.83301 3.625C2.83301 3.28125 3.11426 3 3.45801 3ZM3.45801 5.5H5.95801C6.30176 5.5 6.58301 5.78125 6.58301 6.125C6.58301 6.46875 6.30176 6.75 5.95801 6.75H3.45801C3.11426 6.75 2.83301 6.46875 2.83301 6.125C2.83301 5.78125 3.11426 5.5 3.45801 5.5ZM5.5752 15.4141C5.33691 16.207 4.60645 16.75 3.77832 16.75H3.45801C3.11426 16.75 2.83301 16.4688 2.83301 16.125C2.83301 15.7812 3.11426 15.5 3.45801 15.5H3.77832C4.05566 15.5 4.29785 15.3203 4.37598 15.0547L4.95801 13.1211C5.09082 12.6797 5.49707 12.375 5.95801 12.375C6.41895 12.375 6.8252 12.6758 6.95801 13.1211L7.41113 14.6289C7.7002 14.3867 8.06738 14.25 8.45801 14.25C9.0791 14.25 9.64551 14.6016 9.92285 15.1562L10.0947 15.5H12.208C12.5518 15.5 12.833 15.7812 12.833 16.125C12.833 16.4688 12.5518 16.75 12.208 16.75H9.70801C9.46973 16.75 9.25488 16.6172 9.14941 16.4062L8.80566 15.7148C8.73926 15.582 8.60645 15.5 8.46191 15.5C8.31738 15.5 8.18066 15.582 8.11816 15.7148L7.77441 16.4062C7.66113 16.6367 7.41504 16.7734 7.16113 16.75C6.90723 16.7266 6.68848 16.5508 6.61816 16.3086L5.95801 14.1328L5.5752 15.4141Z" fill="#6B7280"/>
</svg>
