<svg width="16" height="16" viewBox="0 0 16 16" fill="none" xmlns="http://www.w3.org/2000/svg">
<path d="M13.2884 8.69411C13.1625 9.65408 12.7777 10.5617 12.1752 11.3196C11.5727 12.0774 10.7752 12.657 9.86836 12.9961C8.9615 13.3352 7.97943 13.4211 7.02749 13.2445C6.07554 13.0679 5.18962 12.6355 4.46475 11.9937C3.73988 11.3518 3.20339 10.5248 2.91283 9.60121C2.62227 8.67765 2.58859 7.69241 2.81542 6.75117C3.04224 5.80992 3.52101 4.94818 4.20036 4.25835C4.87972 3.56852 5.73405 3.07663 6.67172 2.83544C9.27105 2.16878 11.9617 3.50678 12.955 6.00011" stroke="white" stroke-width="1.33333" stroke-linecap="round" stroke-linejoin="round"/>
<path d="M13.3333 2.66699V6.00033H10" stroke="white" stroke-width="1.33333" stroke-linecap="round" stroke-linejoin="round"/>
</svg>
