<svg width="22" height="20" viewBox="0 0 22 20" fill="none" xmlns="http://www.w3.org/2000/svg">
<path d="M10.953 0.25C8.636 0.25 6.835 0.25 5.433 0.4C4.015 0.553 2.892 0.87 1.996 1.586C1.076 2.322 0.646 3.279 0.443 4.486C0.25 5.638 0.25 7.104 0.25 8.932V9.115C0.25 10.897 0.25 12.13 0.45 13.049C0.558 13.544 0.728 13.974 0.995 14.372C1.259 14.764 1.595 15.094 1.996 15.414C2.627 15.919 3.371 16.224 4.25 16.414V19C4.25012 19.1314 4.28475 19.2605 4.35044 19.3743C4.41613 19.4881 4.51057 19.5826 4.62429 19.6484C4.73802 19.7143 4.86704 19.7491 4.99844 19.7493C5.12984 19.7496 5.259 19.7153 5.373 19.65C5.959 19.315 6.478 18.95 6.953 18.606L7.257 18.385C7.59525 18.1318 7.94073 17.8883 8.293 17.655C9.137 17.107 9.943 16.75 11 16.75H11.047C13.364 16.75 15.165 16.75 16.567 16.6C17.985 16.447 19.108 16.13 20.004 15.414C20.404 15.094 20.741 14.764 21.004 14.372C21.272 13.974 21.442 13.544 21.55 13.049C21.75 12.13 21.75 10.897 21.75 9.115V8.932C21.75 7.104 21.75 5.638 21.557 4.487C21.354 3.279 20.924 2.322 20.004 1.586C19.108 0.869 17.985 0.553 16.567 0.401C15.165 0.25 13.364 0.25 11.047 0.25H10.953Z" fill="#F44336"/>
</svg>
