<svg width="95" height="95" viewBox="0 0 95 95" fill="none" xmlns="http://www.w3.org/2000/svg">
<path d="M51.2422 58.166L43.8203 58.166L43.8203 28.4785L51.2422 28.4785L51.2422 58.166Z" fill="#EFBD8E"/>
<path d="M47.5 65.291C45.3685 65.291 43.6406 67.0189 43.6406 69.1504C43.6406 71.2819 45.3685 73.0098 47.5 73.0098C49.6315 73.0098 51.3594 71.2819 51.3594 69.1504C51.3594 67.0189 49.6315 65.291 47.5 65.291Z" fill="#EFBD8E"/>
<path d="M47.5 94.9776C59.6972 95.3703 71.5436 90.595 80.446 81.6968C89.3483 72.7986 94.5815 60.5025 95 47.5C94.5815 34.4975 89.3483 22.2014 80.446 13.3032C71.5436 4.40504 59.6972 -0.370316 47.5 0.0224457C35.3028 -0.370316 23.4564 4.40504 14.554 13.3032C5.65166 22.2014 0.418472 34.4975 0 47.5C0.418472 60.5025 5.65166 72.7986 14.554 81.6968C23.4564 90.595 35.3028 95.3703 47.5 94.9776ZM47.5 7.93537C57.7293 7.54133 67.6886 11.4827 75.1994 18.8972C82.7101 26.3117 87.1609 36.5959 87.5781 47.5C87.1609 58.4041 82.7101 68.6883 75.1994 76.1028C67.6886 83.5174 57.7293 87.4587 47.5 87.0646C37.2707 87.4587 27.3114 83.5174 19.8006 76.1028C12.2899 68.6883 7.83908 58.4041 7.42188 47.5C7.83908 36.5959 12.2899 26.3117 19.8006 18.8972C27.3114 11.4827 37.2707 7.54133 47.5 7.93537Z" fill="#EFBD8E"/>
</svg>
