<svg width="20" height="20" viewBox="0 0 20 20" fill="none" xmlns="http://www.w3.org/2000/svg">
<path d="M10 8.33334C9.76389 8.33334 9.56611 8.41334 9.40667 8.57334C9.24722 8.73334 9.16722 8.93112 9.16667 9.16667V11.8333L8.41667 11.0833C8.26389 10.9306 8.06944 10.8542 7.83333 10.8542C7.59722 10.8542 7.40278 10.9306 7.25 11.0833C7.09722 11.2361 7.02083 11.4306 7.02083 11.6667C7.02083 11.9028 7.09722 12.0972 7.25 12.25L9.41667 14.4167C9.58333 14.5833 9.77778 14.6667 10 14.6667C10.2222 14.6667 10.4167 14.5833 10.5833 14.4167L12.75 12.25C12.9028 12.0972 12.9792 11.9028 12.9792 11.6667C12.9792 11.4306 12.9028 11.2361 12.75 11.0833C12.5972 10.9306 12.4028 10.8542 12.1667 10.8542C11.9306 10.8542 11.7361 10.9306 11.5833 11.0833L10.8333 11.8333V9.16667C10.8333 8.93056 10.7533 8.73278 10.5933 8.57334C10.4333 8.41389 10.2356 8.33389 10 8.33334ZM4.16667 6.66667V15.8333H15.8333V6.66667H4.16667ZM4.16667 17.5C3.70833 17.5 3.31611 17.337 2.99 17.0108C2.66389 16.6847 2.50056 16.2922 2.5 15.8333V5.4375C2.5 5.24306 2.53139 5.05556 2.59417 4.875C2.65694 4.69445 2.75056 4.52778 2.875 4.375L3.91667 3.10417C4.06944 2.90973 4.26028 2.76028 4.48917 2.65584C4.71806 2.55139 4.95778 2.49945 5.20833 2.5H14.7917C15.0417 2.5 15.2814 2.55223 15.5108 2.65667C15.7403 2.76112 15.9311 2.91028 16.0833 3.10417L17.125 4.375C17.25 4.52778 17.3439 4.69445 17.4067 4.875C17.4694 5.05556 17.5006 5.24306 17.5 5.4375V15.8333C17.5 16.2917 17.3369 16.6842 17.0108 17.0108C16.6847 17.3375 16.2922 17.5006 15.8333 17.5H4.16667ZM4.5 5H15.5L14.7917 4.16667H5.20833L4.5 5Z" fill="#6B7280"/>
</svg>
