<svg width="24" height="18" viewBox="0 0 24 18" fill="none" xmlns="http://www.w3.org/2000/svg">
<path d="M3.6 3.00059V11.4006C3.6 12.7243 4.67625 13.8006 6 13.8006H21.6C22.9238 13.8006 24 12.7243 24 11.4006V3.00059C24 1.67684 22.9238 0.600586 21.6 0.600586H6C4.67625 0.600586 3.6 1.67684 3.6 3.00059ZM6 9.00059C7.32375 9.00059 8.4 10.0768 8.4 11.4006H6V9.00059ZM8.4 3.00059C8.4 4.32434 7.32375 5.40059 6 5.40059V3.00059H8.4ZM21.6 9.00059V11.4006H19.2C19.2 10.0768 20.2763 9.00059 21.6 9.00059ZM19.2 3.00059H21.6V5.40059C20.2763 5.40059 19.2 4.32434 19.2 3.00059ZM10.8 7.20059C10.8 6.40494 11.1161 5.64187 11.6787 5.07927C12.2413 4.51666 13.0044 4.20059 13.8 4.20059C14.5956 4.20059 15.3587 4.51666 15.9213 5.07927C16.4839 5.64187 16.8 6.40494 16.8 7.20059C16.8 7.99623 16.4839 8.7593 15.9213 9.32191C15.3587 9.88451 14.5956 10.2006 13.8 10.2006C13.0044 10.2006 12.2413 9.88451 11.6787 9.32191C11.1161 8.7593 10.8 7.99623 10.8 7.20059ZM1.8 3.90059C1.8 3.40184 1.39875 3.00059 0.9 3.00059C0.40125 3.00059 0 3.40184 0 3.90059V12.9006C0 15.3868 2.01375 17.4006 4.5 17.4006H19.5C19.9988 17.4006 20.4 16.9993 20.4 16.5006C20.4 16.0018 19.9988 15.6006 19.5 15.6006H4.5C3.0075 15.6006 1.8 14.3931 1.8 12.9006V3.90059Z" fill="#16A34A"/>
</svg>
