<svg width="20" height="20" viewBox="0 0 20 20" fill="none" xmlns="http://www.w3.org/2000/svg">
<path d="M17.5 14.167L15.7033 12.6103C15.644 12.554 15.5693 12.5164 15.4887 12.5023C15.4081 12.4881 15.3251 12.498 15.2501 12.5307C15.1751 12.5634 15.1114 12.6175 15.0669 12.6862C15.0224 12.7549 14.9992 12.8351 15 12.917V13.3336C15 13.5546 14.9122 13.7666 14.7559 13.9229C14.5996 14.0792 14.3877 14.167 14.1667 14.167H12.5C12.279 14.167 12.067 14.0792 11.9107 13.9229C11.7545 13.7666 11.6667 13.5546 11.6667 13.3336C11.6667 11.2128 8.34083 10.0253 4.58333 10.0003C4.0308 10.0003 3.50089 10.2198 3.11019 10.6105C2.71949 11.0012 2.5 11.5311 2.5 12.0836C2.5 12.6362 2.71949 13.1661 3.11019 13.5568C3.50089 13.9475 4.0308 14.167 4.58333 14.167C8.04417 14.167 8.5375 4.75446 9.34 2.91696C9.47556 2.60679 9.68467 2.33433 9.94921 2.12314C10.2138 1.91195 10.5258 1.76841 10.8583 1.70493C11.1908 1.64145 11.5337 1.65995 11.8575 1.75882C12.1812 1.85769 12.476 2.03395 12.7163 2.27237C12.9566 2.51078 13.1352 2.80415 13.2366 3.1271C13.338 3.45006 13.3592 3.79286 13.2984 4.12584C13.2375 4.45883 13.0964 4.77198 12.8873 5.03818C12.6782 5.30438 12.4074 5.51563 12.0983 5.65363" stroke="#6B7280" stroke-width="2" stroke-linecap="round" stroke-linejoin="round"/>
<path d="M2.5 17.5H17.5" stroke="#6B7280" stroke-width="2" stroke-linecap="round" stroke-linejoin="round"/>
</svg>
