<svg width="95" height="95" viewBox="0 0 95 95" fill="none" xmlns="http://www.w3.org/2000/svg">
<path d="M70.2452 34.0264C70.9106 34.7294 71.27 35.6677 71.2443 36.6353C71.2186 37.6029 70.81 38.5208 70.1082 39.1875L43.3438 64.7644C42.6518 65.4153 41.736 65.7751 40.7861 65.7692C39.8501 65.7728 38.9494 65.4125 38.2741 64.7644L24.8918 51.976C24.5207 51.6521 24.2188 51.2566 24.0044 50.8131C23.79 50.3696 23.6675 49.8874 23.6442 49.3954C23.6209 48.9033 23.6973 48.4117 23.8689 47.9499C24.0405 47.4882 24.3037 47.0659 24.6426 46.7085C24.9816 46.3511 25.3893 46.0659 25.8413 45.87C26.2932 45.6742 26.7801 45.5718 27.2727 45.5689C27.7653 45.566 28.2534 45.6628 28.7076 45.8534C29.1618 46.044 29.5728 46.3244 29.9159 46.6779L40.7861 57.0457L65.0841 33.8894C65.7871 33.224 66.7254 32.8646 67.693 32.8903C68.6606 32.916 69.5785 33.3246 70.2452 34.0264ZM95 47.5C95 56.8946 92.2142 66.0782 86.9948 73.8896C81.7754 81.7009 74.357 87.7891 65.6775 91.3843C56.998 94.9794 47.4473 95.9201 38.2332 94.0873C29.0191 92.2545 20.5554 87.7305 13.9124 81.0876C7.26945 74.4446 2.74552 65.9809 0.91272 56.7668C-0.920077 47.5527 0.020581 38.002 3.61574 29.3225C7.2109 20.643 13.2991 13.2246 21.1104 8.00519C28.9218 2.78583 38.1054 0 47.5 0C60.0904 0.0241427 72.1582 5.03635 81.0609 13.9391C89.9637 22.8418 94.9759 34.9096 95 47.5ZM87.6923 47.5C87.6923 39.5507 85.3351 31.7799 80.9187 25.1703C76.5023 18.5608 70.2251 13.4092 62.8809 10.3671C55.5368 7.32509 47.4554 6.52915 39.6589 8.07997C31.8623 9.6308 24.7008 13.4587 19.0798 19.0797C13.4588 24.7007 9.63082 31.8623 8.08 39.6589C6.52917 47.4554 7.32511 55.5367 10.3672 62.8809C13.4092 70.2251 18.5608 76.5023 25.1704 80.9187C31.78 85.3351 39.5507 87.6923 47.5 87.6923C58.156 87.6802 68.372 83.4418 75.9069 75.9069C83.4418 68.372 87.6802 58.1559 87.6923 47.5Z" fill="#4CAF50"/>
</svg>
