<svg width="16" height="16" viewBox="0 0 16 16" fill="none" xmlns="http://www.w3.org/2000/svg">
<path d="M6.99934 10.1673C6.87071 10.1575 6.75105 10.0976 6.666 10.0006L4.666 8.00064C4.62144 7.90734 4.6069 7.80251 4.62439 7.70061C4.64187 7.5987 4.69052 7.50472 4.76363 7.4316C4.83675 7.35849 4.93073 7.30984 5.03264 7.29236C5.13455 7.27487 5.23937 7.28941 5.33267 7.33397L6.97934 8.98064L12.666 3.33397C12.7593 3.28941 12.8641 3.27487 12.966 3.29236C13.0679 3.30984 13.1619 3.35849 13.235 3.4316C13.3082 3.50472 13.3568 3.5987 13.3743 3.70061C13.3918 3.80251 13.3772 3.90734 13.3327 4.00064L7.33267 10.0006C7.24762 10.0976 7.12797 10.1575 6.99934 10.1673Z" fill="#D4B036"/>
<path d="M8.00007 14.0001C6.92772 13.9984 5.87542 13.7093 4.95269 13.1629C4.02996 12.6166 3.27052 11.8329 2.75341 10.8934C2.36087 10.1932 2.11796 9.41909 2.04007 8.62012C1.91806 7.44817 2.14381 6.26624 2.68917 5.22176C3.23453 4.17728 4.07535 3.3165 5.10674 2.74678C5.80699 2.35424 6.58109 2.11134 7.38007 2.03345C8.17617 1.94856 8.98122 2.02566 9.74674 2.26012C9.81504 2.27376 9.87975 2.30153 9.93669 2.34164C9.99364 2.38175 10.0416 2.43332 10.0774 2.49304C10.1133 2.55275 10.1363 2.6193 10.1449 2.68842C10.1536 2.75754 10.1477 2.8277 10.1276 2.89441C10.1075 2.96111 10.0738 3.02289 10.0284 3.07578C9.98311 3.12867 9.92724 3.17151 9.86439 3.20155C9.80154 3.23158 9.73311 3.24816 9.66349 3.25021C9.59386 3.25226 9.52458 3.23974 9.46007 3.21345C8.81254 3.01838 8.13252 2.95491 7.46007 3.02678C6.79529 3.0943 6.15116 3.29616 5.56674 3.62012C5.00349 3.93085 4.5055 4.34735 4.10007 4.84678C3.68265 5.35555 3.37094 5.94251 3.1832 6.57326C2.99546 7.20401 2.93547 7.86589 3.00674 8.52012C3.07425 9.1849 3.27611 9.82903 3.60007 10.4134C3.91081 10.9767 4.32731 11.4747 4.82674 11.8801C5.33551 12.2975 5.92246 12.6093 6.55322 12.797C7.18397 12.9847 7.84584 13.0447 8.50007 12.9734C9.16485 12.9059 9.80899 12.7041 10.3934 12.3801C10.9567 12.0694 11.4546 11.6529 11.8601 11.1534C12.2775 10.6447 12.5892 10.0577 12.7769 9.42697C12.9647 8.79622 13.0247 8.13434 12.9534 7.48012C12.9401 7.34132 12.9826 7.20294 13.0713 7.09542C13.1601 6.9879 13.2879 6.92004 13.4267 6.90678C13.5655 6.89352 13.7039 6.93594 13.8114 7.02471C13.919 7.11347 13.9868 7.24132 14.0001 7.38012C14.1215 8.55276 13.8947 9.73518 13.3481 10.7797C12.8016 11.8243 11.9594 12.6847 10.9267 13.2534C10.219 13.6621 9.43298 13.9165 8.62007 14.0001H8.00007Z" fill="#D4B036"/>
</svg>
