<svg width="22" height="22" viewBox="0 0 22 22" fill="none" xmlns="http://www.w3.org/2000/svg">
<path d="M10.9997 0.333008C12.4142 0.333008 13.7707 0.894911 14.7709 1.8951C15.7711 2.8953 16.333 4.25185 16.333 5.66634C16.333 7.08083 15.7711 8.43738 14.7709 9.43758C13.7707 10.4378 12.4142 10.9997 10.9997 10.9997C9.58519 10.9997 8.22863 10.4378 7.22844 9.43758C6.22824 8.43738 5.66634 7.08083 5.66634 5.66634C5.66634 4.25185 6.22824 2.8953 7.22844 1.8951C8.22863 0.894911 9.58519 0.333008 10.9997 0.333008ZM10.9997 13.6663C16.893 13.6663 21.6663 16.053 21.6663 18.9997V21.6663H0.333008V18.9997C0.333008 16.053 5.10634 13.6663 10.9997 13.6663Z" fill="#D4B036"/>
</svg>
