<svg width="21" height="15" viewBox="0 0 21 15" fill="none" xmlns="http://www.w3.org/2000/svg">
<path d="M14.5 13V15H0.5V13C0.5 13 0.5 9.00004 7.5 9.00004C14.5 9.00004 14.5 13 14.5 13ZM11 3.50004C11 2.8078 10.7947 2.13111 10.4101 1.55554C10.0256 0.979969 9.47893 0.531365 8.83939 0.266459C8.19985 0.0015519 7.49612 -0.0677598 6.81718 0.0672885C6.13825 0.202337 5.51461 0.53568 5.02513 1.02516C4.53564 1.51465 4.2023 2.13829 4.06725 2.81722C3.9322 3.49615 4.00152 4.19989 4.26642 4.83943C4.53133 5.47897 4.97993 6.0256 5.5555 6.41018C6.13108 6.79477 6.80777 7.00004 7.5 7.00004C8.42826 7.00004 9.3185 6.63129 9.97487 5.97491C10.6313 5.31853 11 4.42829 11 3.50004ZM14.44 9.00004C15.0547 9.47578 15.5578 10.0805 15.9137 10.7715C16.2696 11.4626 16.4697 12.2233 16.5 13V15H20.5V13C20.5 13 20.5 9.37004 14.44 9.00004ZM13.5 3.67965e-05C12.8118 -0.00316434 12.1388 0.202568 11.57 0.590037C12.1774 1.43877 12.5041 2.45632 12.5041 3.50004C12.5041 4.54375 12.1774 5.5613 11.57 6.41004C12.1388 6.79751 12.8118 7.00324 13.5 7.00004C14.4283 7.00004 15.3185 6.63129 15.9749 5.97491C16.6313 5.31853 17 4.42829 17 3.50004C17 2.57178 16.6313 1.68154 15.9749 1.02516C15.3185 0.368786 14.4283 3.67965e-05 13.5 3.67965e-05Z" fill="#D4B036"/>
</svg>
